# This file uses centimeters as units for non-parametric coordinates.

g default
v 0.500000 0.000000 -0.866025
v -0.500000 0.000000 -0.866025
v -1.000000 0.000000 -0.000000
v -0.500000 0.000000 0.866025
v 0.500000 0.000000 0.866025
v 1.000000 0.000000 0.000000
v 0.000000 0.000000 0.000000
vt 0.578125 0.020934
vt 0.421875 0.020934
vt 0.343750 0.156250
vt 0.421875 0.291566
vt 0.578125 0.291566
vt 0.656250 0.156250
vt 0.500000 0.150000
vn 0.000000 -1.000000 0.000000
vn 0.000000 -1.000000 0.000000
vn 0.000000 -1.000000 0.000000
vn 0.000000 -1.000000 0.000000
vn 0.000000 -1.000000 0.000000
vn 0.000000 -1.000000 0.000000
vn 0.000000 -1.000000 0.000000
g pCylinder1
f 2/2/1 1/1/2 7/7/3
f 3/3/4 2/2/1 7/7/3
f 4/4/5 3/3/4 7/7/3
f 5/5/6 4/4/5 7/7/3
f 6/6/7 5/5/6 7/7/3
f 1/1/2 6/6/7 7/7/3
